<svg width="366" height="60" viewBox="0 0 732 121" xmlns="http://www.w3.org/2000/svg">
<path d="M90.9953 54.0839C93.8598 54.0839 96.5584 54.3693 99.0892 54.9404C101.631 55.5137 103.986 56.3736 106.154 57.5199C110.535 59.8352 113.926 63.2546 116.328 67.7768C117.521 70.0248 118.416 72.5073 119.012 75.2229C119.601 77.9112 119.897 80.8245 119.897 83.9611V119.695H105.752V103.723H76.0613V119.695H62.0937V83.9611C62.0937 80.8245 62.3889 77.9112 62.9785 75.2229C63.5741 72.5073 64.4691 70.0248 65.6631 67.7768C68.0646 63.2546 71.4559 59.8352 75.836 57.5199C78.0051 56.3736 80.3601 55.5137 82.9011 54.9404C85.4323 54.3693 88.1305 54.0839 90.9953 54.0839ZM360.877 91.9095C357.964 87.2966 355.661 82.2603 354.084 76.9153C352.492 71.5174 351.638 65.8103 351.638 59.912C351.638 43.3425 358.354 28.342 369.212 17.4834C380.071 6.62517 395.072 -0.0914307 411.641 -0.0914307C428.21 -0.0914307 443.211 6.62479 454.069 17.4834C464.928 28.342 471.644 43.3425 471.644 59.912C471.644 76.481 464.928 91.482 454.069 102.341C443.211 113.199 428.21 119.915 411.641 119.915C404.474 119.915 397.593 118.654 391.208 116.342C385.14 114.144 379.53 110.998 374.556 107.083L368.939 119.915H349.76L299.679 5.51814H320.001L359.349 95.4002L360.877 91.9095ZM415.796 55.7564C414.733 54.6932 413.264 54.0352 411.641 54.0352C410.018 54.0352 408.549 54.6932 407.485 55.7564C406.422 56.8195 405.764 58.289 405.764 59.912C405.764 61.5349 406.422 63.004 407.485 64.0676C408.549 65.1307 410.018 65.7888 411.641 65.7888C413.264 65.7888 414.733 65.1307 415.796 64.0676C416.859 63.004 417.517 61.5349 417.517 59.912C417.517 58.289 416.859 56.8195 415.796 55.7564ZM394.113 15.9905C388.531 18.2196 383.474 21.4821 379.178 25.541L386.658 33.0199L394.113 15.9905ZM444.069 25.5088C435.89 17.7963 424.961 12.968 412.908 12.6505V51.5199C414.26 51.7221 415.508 52.2441 416.573 53.0057L444.069 25.5088ZM458.898 58.5101C458.546 46.4448 453.675 35.5132 445.918 27.3498L418.437 54.8304C419.233 55.8921 419.785 57.1461 420.012 58.5101H458.898ZM446.012 92.3739C453.756 84.1777 458.6 73.2129 458.904 61.1195H420.041C419.843 62.5108 419.307 63.7935 418.52 64.8817L446.012 92.3739ZM412.908 107.173C425.01 106.854 435.979 101.988 444.169 94.2206L416.685 66.7363C415.596 67.5425 414.308 68.0939 412.908 68.3037V107.173ZM381.074 92.1952L379.875 94.9331C384.044 98.7164 388.886 101.765 394.198 103.874C399.197 105.859 404.624 107.015 410.309 107.172L410.309 68.2938C408.918 68.0746 407.639 67.5175 406.56 66.7091L381.074 92.1952ZM394.677 61.1203L383.947 85.6324L404.735 64.8442C403.962 63.7641 403.436 62.4953 403.24 61.1203H394.677ZM399.668 49.7205L395.82 58.5109H403.27C403.494 57.1627 404.036 55.9219 404.816 54.8682L399.668 49.7205ZM410.309 25.4147L400.792 47.1542L406.671 53.0332C407.726 52.269 408.965 51.7418 410.308 51.5301L410.309 25.4147ZM374.356 61.1207H364.378C364.454 64.1647 364.817 67.1343 365.44 70.0037C365.951 72.3545 366.635 74.6363 367.477 76.8344L374.356 61.1207ZM364.384 58.5117H375.498L385.534 35.5862L377.332 27.3839C369.593 35.5439 364.734 46.4621 364.384 58.5117ZM27.017 54.971C32.5741 54.971 37.4375 55.8977 41.6064 57.7505C43.7157 58.6878 45.5817 59.8307 47.2031 61.1777C48.8408 62.5387 50.2275 64.1016 51.3613 65.8659C52.4993 67.6362 53.3524 69.5705 53.9201 71.6678C54.4832 73.7481 54.7648 75.9825 54.7648 78.3708C54.7648 80.7334 54.4832 82.9512 53.9201 85.0235C53.3558 87.1004 52.5027 89.0351 51.3613 90.8266C50.221 92.6166 48.8362 94.1923 47.208 95.5529C45.5915 96.9037 43.724 98.0501 41.6064 98.9915C39.5114 99.9224 37.2456 100.619 34.81 101.08C32.376 101.54 29.778 101.771 27.017 101.771H14.3012V119.695H0.156281V54.971H27.017ZM26.4845 89.4006C28.8894 89.4006 30.9851 89.1512 32.771 88.653C34.4963 88.1715 35.9416 87.4542 37.1057 86.5017C38.2445 85.5704 39.0968 84.4423 39.6622 83.119C40.2412 81.7629 40.5311 80.18 40.5311 78.3708C40.5311 76.5619 40.2412 74.9791 39.6622 73.623C39.0968 72.2998 38.2445 71.1719 37.1057 70.2399C35.9416 69.2878 34.4967 68.5705 32.771 68.089C30.9851 67.5905 28.8894 67.3414 26.4845 67.3414H14.3012V89.4006H26.4845ZM703.422 54.0839C706.287 54.0839 708.985 54.3693 711.516 54.9404C714.057 55.5137 716.412 56.3736 718.581 57.5199C722.961 59.8352 726.353 63.2546 728.754 67.7768C729.948 70.0248 730.843 72.5073 731.439 75.2229C732.029 77.9112 732.323 80.8245 732.323 83.9611V119.695H718.178V103.723H688.488V119.695H674.52V83.9611C674.52 80.8245 674.816 77.9112 675.405 75.2229C676.001 72.5073 676.896 70.0248 678.09 67.7768C680.491 63.2546 683.883 59.8352 688.263 57.5199C690.432 56.3736 692.787 55.5137 695.328 54.9404C697.859 54.3693 700.557 54.0839 703.422 54.0839ZM718.178 91.4415V82.8964C718.178 80.1612 717.845 77.7774 717.18 75.7455C716.532 73.7692 715.569 72.1221 714.291 70.8038C711.709 68.1407 708.056 66.8089 703.333 66.8089C698.61 66.8089 694.958 68.1407 692.375 70.8038C691.097 72.1221 690.134 73.7692 689.487 75.7455C688.821 77.777 688.488 80.1608 688.488 82.8964V91.4415H718.178ZM633.872 94.328L625.397 103.032V119.695H611.252C611.254 98.1207 611.254 76.5457 611.252 54.971H625.397V84.9029L654.245 54.971H670.761L643.386 84.1153L672.071 119.695H655.257L633.872 94.328ZM597.179 56.2757V119.695H583.034V93.0747H553.521V119.695H539.376V54.971H553.521V80.6158H583.034V54.971H597.179V56.2757ZM504.92 120.583C501.693 120.583 498.607 120.225 495.663 119.51C492.722 118.796 489.935 117.724 487.306 116.293C484.672 114.861 482.323 113.155 480.259 111.176C478.191 109.192 476.41 106.937 474.916 104.412C473.422 101.887 472.3 99.1934 471.55 96.3334C470.803 93.4806 470.429 90.4804 470.429 87.3332C470.429 84.1815 470.806 81.1797 471.562 78.3281C472.317 75.4753 473.452 72.782 474.965 70.2497C476.475 67.7224 478.268 65.4671 480.342 63.4855C482.411 61.5092 484.762 59.805 487.394 58.373C490.024 56.9428 492.81 55.8705 495.752 55.1562C498.696 54.4415 501.782 54.0839 505.009 54.0839C507.627 54.0839 510.141 54.3141 512.552 54.7748C514.956 55.234 517.253 55.9269 519.445 56.8528C521.646 57.7826 523.67 58.9176 525.517 60.2567C527.371 61.6007 529.058 63.1567 530.577 64.9244L531.387 65.8659L522.071 74.6268L521.182 73.6676C516.944 69.0951 511.731 66.8089 505.541 66.8089C503.504 66.8089 501.587 67.0284 499.791 67.4668C498.002 67.9038 496.312 68.5618 494.721 69.4409C493.139 70.3155 491.732 71.3575 490.503 72.5654C489.277 73.7715 488.218 75.1533 487.328 76.7108C486.44 78.2646 485.775 79.9219 485.331 81.6817C484.885 83.452 484.662 85.3361 484.662 87.3332C484.662 91.304 485.551 94.845 487.328 97.9556C488.218 99.5131 489.277 100.895 490.503 102.101C491.732 103.309 493.139 104.351 494.721 105.225C497.896 106.98 501.503 107.858 505.541 107.858C511.73 107.858 516.942 105.545 521.177 100.921L522.073 99.9413L531.381 108.807L530.577 109.742C529.063 111.504 527.371 113.06 525.501 114.41C523.629 115.761 521.595 116.898 519.401 117.818C517.21 118.738 514.9 119.429 512.469 119.892C510.05 120.352 507.534 120.583 504.92 120.583ZM291.094 120.583C287.842 120.583 284.732 120.225 281.765 119.51C278.791 118.794 275.987 117.723 273.351 116.298C270.705 114.868 268.342 113.158 266.261 111.17C264.176 109.177 262.378 106.909 260.868 104.368C259.359 101.827 258.226 99.1318 257.469 96.2831C256.714 93.439 256.336 90.4555 256.336 87.3332C256.336 84.2109 256.714 81.2278 257.469 78.3837C258.226 75.535 259.359 72.8395 260.868 70.2989C262.378 67.7575 264.176 65.4898 266.261 63.4969C268.342 61.5085 270.705 59.7986 273.351 58.368C278.634 55.5119 284.548 54.0839 291.094 54.0839C297.64 54.0839 303.555 55.5119 308.837 58.368C311.482 59.7982 313.846 61.5043 315.928 63.4855C318.009 65.4667 319.805 67.7216 321.316 70.2497C322.829 72.782 323.964 75.4753 324.719 78.3281C325.475 81.1797 325.853 84.1815 325.853 87.3332C325.853 90.485 325.475 93.4867 324.719 96.3383C323.964 99.1911 322.829 101.884 321.316 104.417C319.805 106.945 318.009 109.2 315.928 111.181C313.846 113.162 311.482 114.868 308.837 116.298C306.202 117.723 303.397 118.794 300.424 119.51C297.457 120.225 294.347 120.583 291.094 120.583ZM291.094 107.858C295.01 107.858 298.525 106.982 301.638 105.23C303.186 104.36 304.57 103.315 305.789 102.095C307.013 100.871 308.068 99.4776 308.952 97.9163C309.839 96.3515 310.504 94.6889 310.949 92.9292C311.395 91.166 311.618 89.3008 311.618 87.3332C311.618 85.366 311.395 83.5004 310.949 81.7372C310.504 79.9775 309.839 78.3149 308.952 76.7501C308.068 75.1892 307.013 73.7961 305.789 72.5715C304.57 71.3518 303.186 70.3061 301.638 69.436C300.082 68.561 298.429 67.9041 296.679 67.4668C294.925 67.0284 293.063 66.8089 291.094 66.8089C289.125 66.8089 287.264 67.0284 285.509 67.4668C283.76 67.9041 282.106 68.561 280.55 69.436C279.003 70.3061 277.619 71.3518 276.399 72.5715C275.175 73.7961 274.12 75.1892 273.236 76.7501C272.35 78.3149 271.684 79.9775 271.239 81.7372C270.793 83.5004 270.57 85.366 270.57 87.3332C270.57 91.2503 271.459 94.7777 273.236 97.9163C274.12 99.4776 275.175 100.871 276.399 102.095C277.619 103.315 279.003 104.36 280.55 105.23C282.106 106.106 283.76 106.762 285.509 107.2C287.264 107.638 289.125 107.858 291.094 107.858ZM220.923 94.328L212.448 103.032V119.695H198.303V54.971H212.448V84.9029L241.297 54.971H257.812L230.437 84.1153L259.122 119.695H242.308L220.923 94.328ZM174.318 119.135L162.055 101.555C161.567 101.581 160.981 101.593 160.298 101.593H147.582V119.695H133.438C133.435 98.1207 133.437 76.5457 133.437 54.971H160.298C165.855 54.971 170.718 55.8977 174.887 57.7505C176.997 58.6878 178.863 59.8307 180.484 61.1777C182.122 62.5387 183.508 64.1016 184.642 65.8659C185.78 67.6362 186.634 69.5705 187.201 71.6678C187.764 73.7481 188.046 75.9825 188.046 78.3708C188.046 80.8218 187.744 83.1133 187.141 85.2446C186.532 87.3944 185.62 89.3689 184.405 91.1679C183.191 92.9658 181.709 94.5377 179.961 95.8829C178.627 96.9083 177.142 97.798 175.505 98.552L190.305 119.695H174.709L174.318 119.135ZM173.812 78.3708C173.812 76.5619 173.522 74.9791 172.943 73.623C172.378 72.2998 171.526 71.1719 170.387 70.2399C169.223 69.2878 167.778 68.5705 166.052 68.089C164.266 67.5905 162.17 67.3414 159.765 67.3414H147.582V89.4894H159.765C162.165 89.4894 164.26 89.2362 166.047 88.7305C167.774 88.2422 169.219 87.5154 170.382 86.5512C171.522 85.6056 172.376 84.4649 172.943 83.13C173.522 81.7675 173.812 80.1808 173.812 78.3708ZM105.752 91.4415V82.8964C105.752 80.1608 105.419 77.777 104.753 75.7455C104.106 73.7692 103.142 72.1217 101.865 70.8038C99.2823 68.1407 95.6294 66.8089 90.9065 66.8089C86.184 66.8089 82.5311 68.1407 79.9485 70.8038C78.6707 72.1217 77.7073 73.7692 77.0598 75.7455C76.3943 77.7774 76.0613 80.1612 76.0613 82.8964V91.4415H105.752Z" fill="#649dad"/>
</svg>
